<svg style="background: #0000a4;" width="58px" height="37px" viewBox="0 10 58 30" version="1.1" xmlns="http://www.w3.org/2000/svg" xmlns:xlink="http://www.w3.org/1999/xlink">
    <title>Group 2</title>
    <g id="Symbols" stroke="none" stroke-width="1" fill="none" fill-rule="evenodd">
        <g id="Navigatie" transform="translate(-191.000000, -7.000000)" fill="#FFFFFF">
            <g id="Group-2" transform="translate(191.000000, 7.000000)">

                <g id="Group" transform="translate(0.000000, 0.000000)">
                    <g id="Logo/Primary/Standard" transform="translate(0.000000, 0.000000)">
                        <g id="Group-15" transform="translate(1.425287, 1.425287)">
                            <path d="M6.51655632,27.3794851 C7.38028046,27.5405425 8.34092414,27.6046805 8.98087816,27.6046805 C11.3154989,27.6046805 12.8505333,26.3447264 12.8505333,24.3749793 C12.8505333,22.4351632 11.3482805,21.1110713 9.17186667,21.1110713 C8.37228046,21.1110713 7.41163678,21.2079908 6.51655632,21.4987494 L6.51655632,27.3794851 Z M0.000142528736,10.9972322 L6.51655632,10.9972322 L6.51655632,16.3933701 C7.79646437,15.9073471 9.11770575,15.6821517 10.493108,15.6821517 C15.6113149,15.6821517 19.3213379,19.4306575 19.3213379,24.5673931 C19.3213379,28.4456 16.6674529,33.0336 10.6199586,33.0336 L0.000142528736,33.0336 L0.000142528736,10.9972322 Z" id="Fill-1"></path>
                            <path d="M30.2793747,27.7998023 C32.3132598,27.7998023 33.7143172,26.4415034 33.7143172,24.5031126 C33.7143172,22.5647218 32.3132598,21.2078483 30.2793747,21.2078483 C28.2454897,21.2078483 26.8444322,22.5647218 26.8444322,24.5031126 C26.8444322,26.4415034 28.2454897,27.7998023 30.2793747,27.7998023 M30.2793747,15.6820092 C37.4770759,15.6820092 40.2278805,20.3669287 40.2278805,24.5031126 C40.2278805,29.0269747 37.060892,33.3242161 30.3435126,33.3242161 C23.1458115,33.3242161 20.330869,28.6706529 20.330869,24.5031126 C20.330869,20.1089517 23.3054437,15.6820092 30.2793747,15.6820092" id="Fill-3"></path>
                            <polygon id="Fill-5" points="41.549977 33.0338851 48.0564138 33.0338851 48.0564138 10.9975172 41.549977 10.9975172"></polygon>
                            <path d="M56.5790621,29.3503724 C56.5790621,31.5467402 54.8786943,33.3240736 52.7364874,33.3240736 C50.5942805,33.3240736 48.861131,31.5467402 48.861131,29.3503724 C48.861131,27.1525793 50.5942805,25.4080276 52.7364874,25.4080276 C54.8786943,25.4080276 56.5790621,27.1525793 56.5790621,29.3503724" id="Fill-7"></path>
                            <path d="M71.2995724,32.2579586 C69.1359862,33.0660966 67.820446,33.3240736 66.0331356,33.3240736 C60.4859172,33.3240736 56.6305149,29.7366253 56.6305149,24.5998897 C56.6305149,20.3354299 59.4198023,15.6818667 65.8449977,15.6818667 C67.5995264,15.6818667 69.4809057,15.9726253 71.1727218,16.5541425 L71.1727218,22.2082575 C69.7317563,21.531246 68.4162161,21.2077057 67.0365379,21.2077057 C64.7175954,21.2077057 63.1497793,22.5645793 63.1497793,24.5357517 C63.1497793,26.4741425 64.8102391,27.7996598 67.2246759,27.7996598 C68.4461471,27.7996598 69.5122621,27.5089011 71.2995724,26.7321195 L71.2995724,32.2579586 Z" id="Fill-8"></path>
                            <path d="M82.1130851,27.7998023 C84.1469701,27.7998023 85.5480276,26.4415034 85.5480276,24.5031126 C85.5480276,22.5647218 84.1469701,21.2078483 82.1130851,21.2078483 C80.0777747,21.2078483 78.6781425,22.5647218 78.6781425,24.5031126 C78.6781425,26.4415034 80.0777747,27.7998023 82.1130851,27.7998023 M82.1130851,15.6820092 C89.3107862,15.6820092 92.0615908,20.3669287 92.0615908,24.5031126 C92.0615908,29.0269747 88.8946023,33.3242161 82.177223,33.3242161 C74.9795218,33.3242161 72.1645793,28.6706529 72.1645793,24.5031126 C72.1645793,20.1089517 75.1377287,15.6820092 82.1130851,15.6820092" id="Fill-9"></path>
                            <path d="M93.473623,15.9730529 L99.9772092,15.9730529 L99.9772092,18.2349839 C101.553577,16.4890069 103.409301,15.6822943 105.465991,15.6822943 C107.813439,15.6822943 109.324244,16.5873517 110.578497,18.7195816 C112.281715,16.7484092 114.371186,15.6822943 116.621715,15.6822943 C120.448611,15.6822943 122.106221,18.7195816 122.106221,22.1131908 L122.106221,33.0337425 L115.601209,33.0337425 L115.601209,23.2434437 C115.601209,22.014846 114.881439,21.2081333 113.788244,21.2081333 C112.823324,21.2081333 111.740106,21.8224322 111.065945,22.9512598 L111.065945,33.0337425 L104.515324,33.0337425 L104.515324,23.3717195 C104.515324,22.1131908 103.762772,21.2081333 102.604014,21.2081333 C101.768795,21.2081333 100.685577,21.8224322 99.9772092,22.9512598 L99.9772092,33.0337425 L93.473623,33.0337425 L93.473623,15.9730529 Z" id="Fill-10"></path>
                            <path d="M129.808759,-0.000285057471 C124.365586,-0.000285057471 119.935793,4.4793931 119.935793,9.98385287 C119.935793,15.4854621 124.365586,19.9622897 129.808759,19.9622897 C135.250506,19.9622897 139.678874,15.4854621 139.678874,9.98385287 C139.678874,4.4793931 135.250506,-0.000285057471 129.808759,-0.000285057471 M129.808759,0.631117241 C134.90131,0.631117241 139.046046,4.82716322 139.046046,9.98385287 C139.046046,15.1362667 134.90131,19.3308874 129.808759,19.3308874 C124.713356,19.3308874 120.568621,15.1362667 120.568621,9.98385287 C120.568621,4.82716322 124.713356,0.631117241 129.808759,0.631117241" id="Fill-11"></path>
                            <path d="M125.231591,10.8843494 C123.953108,10.8843494 122.57343,10.0035218 122.57343,8.58108506 C122.57343,5.87161379 126.012648,3.38306207 127.198487,2.83147586 C127.383775,2.74453333 127.673108,3.09657931 127.782855,3.31749885 C127.875499,3.49851034 127.839867,3.56692414 127.791407,3.59257931 C125.634947,4.74706207 123.311729,6.91634943 123.311729,8.94738391 C123.311729,9.82678621 123.774947,10.1702805 124.962211,10.1702805 C126.357568,10.1702805 129.528832,8.24614253 129.528832,6.86076322 C129.528832,6.34053333 129.144005,6.07828046 128.384326,6.07828046 C126.504372,6.07828046 125.489568,7.30402759 125.193108,8.35446437 C125.170303,8.43285517 125.084786,8.46706207 124.969338,8.44283218 C124.818257,8.41290115 124.667177,8.29602759 124.685706,8.16205057 C124.806855,7.22991264 125.794579,5.18890115 127.945338,5.18890115 C128.908832,5.18890115 130.087545,6.05405057 130.087545,7.06457931 C130.087545,9.03147586 127.352418,10.8843494 125.231591,10.8843494 L125.231591,10.8843494 Z" id="Fill-12"></path>
                            <path d="M128.318051,17.4525011 C127.256211,17.4525011 125.457499,16.9721793 125.457499,15.1734667 C125.457499,13.7852368 126.621959,12.1518575 128.822602,10.4543402 L128.878189,10.4130069 C129.023568,10.2961333 129.391292,10.5298805 129.556625,10.7351218 C129.70628,10.9204092 129.637867,11.0116276 129.599384,11.0429839 C128.551798,11.9195356 126.098878,13.9733747 126.098878,15.6381103 C126.098878,16.2837655 126.616257,16.6842713 127.448625,16.6842713 C128.53897,16.6842713 129.897269,16.3692828 131.272671,15.7977425 C131.449407,15.7250529 131.657499,15.9602253 131.747292,16.1512138 C131.831384,16.3236736 131.825683,16.4576506 131.733039,16.5089609 C130.508717,17.1802713 129.520993,17.4525011 128.318051,17.4525011" id="Fill-13"></path>
                            <path d="M132.958501,10.9831218 C130.636708,10.9831218 130.611053,9.27135172 130.611053,9.19723678 C130.611053,8.81525977 130.841949,8.53732874 130.978777,8.40477701 C131.077122,8.31070805 131.278087,8.3605931 131.360754,8.38624828 C131.521811,8.43755862 131.695697,8.53875402 131.718501,8.65135172 C131.728478,8.69838621 131.711375,8.7439954 131.671467,8.7782023 C131.342225,9.05613333 131.188294,9.25709885 131.188294,9.64477701 C131.188294,9.97544368 131.533214,10.3289149 132.174593,10.3289149 C134.700202,10.3289149 136.310777,8.1582023 136.310777,7.02367356 C136.310777,5.98748966 135.549674,5.77084598 134.911145,5.77084598 C132.696248,5.77084598 131.072846,7.88882299 131.005857,7.98004138 C130.971651,8.0228 130.923191,8.04275402 130.864754,8.03562759 C130.692294,8.01282299 130.451421,7.74629425 130.361628,7.53107586 C130.311743,7.41277701 130.310317,7.31728276 130.357352,7.2559954 C130.534087,7.02224828 131.052892,6.44358161 131.747007,5.93190345 C132.646363,5.26771954 133.518639,4.93135172 134.34103,4.93135172 C136.10411,4.93135172 136.907972,6.21981149 136.907972,7.41705287 C136.907972,9.31696092 135.063651,10.9831218 132.958501,10.9831218" id="Fill-14"></path>
                        </g>
                    </g>
                </g>
            </g>
        </g>
    </g>
</svg>