<svg id="visual" viewBox="0 0 900 50" width="900" height="50" xmlns="http://www.w3.org/2000/svg" xmlns:xlink="http://www.w3.org/1999/xlink" version="1.1"><rect x="0" y="0" width="900" height="50" fill="#ffffff"></rect><path d="M0 35L21.5 33.3C43 31.7 86 28.3 128.8 28.3C171.7 28.3 214.3 31.7 257.2 31.5C300 31.3 343 27.7 385.8 27.2C428.7 26.7 471.3 29.3 514.2 30.2C557 31 600 30 642.8 30.3C685.7 30.7 728.3 32.3 771.2 31.8C814 31.3 857 28.7 878.5 27.3L900 26L900 0L878.5 0C857 0 814 0 771.2 0C728.3 0 685.7 0 642.8 0C600 0 557 0 514.2 0C471.3 0 428.7 0 385.8 0C343 0 300 0 257.2 0C214.3 0 171.7 0 128.8 0C86 0 43 0 21.5 0L0 0Z" fill="#919191"></path><path d="M0 24L21.5 23.7C43 23.3 86 22.7 128.8 23.7C171.7 24.7 214.3 27.3 257.2 28.5C300 29.7 343 29.3 385.8 27.7C428.7 26 471.3 23 514.2 21.2C557 19.3 600 18.7 642.8 19.7C685.7 20.7 728.3 23.3 771.2 25C814 26.7 857 27.3 878.5 27.7L900 28L900 0L878.5 0C857 0 814 0 771.2 0C728.3 0 685.7 0 642.8 0C600 0 557 0 514.2 0C471.3 0 428.7 0 385.8 0C343 0 300 0 257.2 0C214.3 0 171.7 0 128.8 0C86 0 43 0 21.5 0L0 0Z" fill="#6b6b6b"></path><path d="M0 13L21.5 14.7C43 16.3 86 19.7 128.8 19.8C171.7 20 214.3 17 257.2 16.3C300 15.7 343 17.3 385.8 17C428.7 16.7 471.3 14.3 514.2 14.3C557 14.3 600 16.7 642.8 16.7C685.7 16.7 728.3 14.3 771.2 14.5C814 14.7 857 17.3 878.5 18.7L900 20L900 0L878.5 0C857 0 814 0 771.2 0C728.3 0 685.7 0 642.8 0C600 0 557 0 514.2 0C471.3 0 428.7 0 385.8 0C343 0 300 0 257.2 0C214.3 0 171.7 0 128.8 0C86 0 43 0 21.5 0L0 0Z" fill="#474747"></path><path d="M0 16L21.5 15C43 14 86 12 128.8 10.7C171.7 9.3 214.3 8.7 257.2 9.8C300 11 343 14 385.8 14.7C428.7 15.3 471.3 13.7 514.2 13.3C557 13 600 14 642.8 14.7C685.7 15.3 728.3 15.7 771.2 14.8C814 14 857 12 878.5 11L900 10L900 0L878.5 0C857 0 814 0 771.2 0C728.3 0 685.7 0 642.8 0C600 0 557 0 514.2 0C471.3 0 428.7 0 385.8 0C343 0 300 0 257.2 0C214.3 0 171.7 0 128.8 0C86 0 43 0 21.5 0L0 0Z" fill="#262626"></path><path d="M0 4L21.5 4.7C43 5.3 86 6.7 128.8 7.3C171.7 8 214.3 8 257.2 7.7C300 7.3 343 6.7 385.8 6.7C428.7 6.7 471.3 7.3 514.2 7C557 6.7 600 5.3 642.8 5.5C685.7 5.7 728.3 7.3 771.2 8C814 8.7 857 8.3 878.5 8.2L900 8L900 0L878.5 0C857 0 814 0 771.2 0C728.3 0 685.7 0 642.8 0C600 0 557 0 514.2 0C471.3 0 428.7 0 385.8 0C343 0 300 0 257.2 0C214.3 0 171.7 0 128.8 0C86 0 43 0 21.5 0L0 0Z" fill="#000000"></path></svg>