<svg id="visual" viewBox="0 0 900 50" width="900" height="50" xmlns="http://www.w3.org/2000/svg" xmlns:xlink="http://www.w3.org/1999/xlink" version="1.1"><rect x="0" y="0" width="900" height="50" fill="#ffffff"></rect><path d="M0 13L21.5 14.7C43 16.3 86 19.7 128.8 19.7C171.7 19.7 214.3 16.3 257.2 16.5C300 16.7 343 20.3 385.8 20.8C428.7 21.3 471.3 18.7 514.2 17.8C557 17 600 18 642.8 17.7C685.7 17.3 728.3 15.7 771.2 16.2C814 16.7 857 19.3 878.5 20.7L900 22L900 51L878.5 51C857 51 814 51 771.2 51C728.3 51 685.7 51 642.8 51C600 51 557 51 514.2 51C471.3 51 428.7 51 385.8 51C343 51 300 51 257.2 51C214.3 51 171.7 51 128.8 51C86 51 43 51 21.5 51L0 51Z" fill="#919191"></path><path d="M0 24L21.5 24.3C43 24.7 86 25.3 128.8 24.3C171.7 23.3 214.3 20.7 257.2 19.5C300 18.3 343 18.7 385.8 20.3C428.7 22 471.3 25 514.2 26.8C557 28.7 600 29.3 642.8 28.3C685.7 27.3 728.3 24.7 771.2 23C814 21.3 857 20.7 878.5 20.3L900 20L900 51L878.5 51C857 51 814 51 771.2 51C728.3 51 685.7 51 642.8 51C600 51 557 51 514.2 51C471.3 51 428.7 51 385.8 51C343 51 300 51 257.2 51C214.3 51 171.7 51 128.8 51C86 51 43 51 21.5 51L0 51Z" fill="#6b6b6b"></path><path d="M0 35L21.5 33.3C43 31.7 86 28.3 128.8 28.2C171.7 28 214.3 31 257.2 31.7C300 32.3 343 30.7 385.8 31C428.7 31.3 471.3 33.7 514.2 33.7C557 33.7 600 31.3 642.8 31.3C685.7 31.3 728.3 33.7 771.2 33.5C814 33.3 857 30.7 878.5 29.3L900 28L900 51L878.5 51C857 51 814 51 771.2 51C728.3 51 685.7 51 642.8 51C600 51 557 51 514.2 51C471.3 51 428.7 51 385.8 51C343 51 300 51 257.2 51C214.3 51 171.7 51 128.8 51C86 51 43 51 21.5 51L0 51Z" fill="#474747"></path><path d="M0 32L21.5 33C43 34 86 36 128.8 37.3C171.7 38.7 214.3 39.3 257.2 38.2C300 37 343 34 385.8 33.3C428.7 32.7 471.3 34.3 514.2 34.7C557 35 600 34 642.8 33.3C685.7 32.7 728.3 32.3 771.2 33.2C814 34 857 36 878.5 37L900 38L900 51L878.5 51C857 51 814 51 771.2 51C728.3 51 685.7 51 642.8 51C600 51 557 51 514.2 51C471.3 51 428.7 51 385.8 51C343 51 300 51 257.2 51C214.3 51 171.7 51 128.8 51C86 51 43 51 21.5 51L0 51Z" fill="#262626"></path><path d="M0 44L21.5 43.3C43 42.7 86 41.3 128.8 40.7C171.7 40 214.3 40 257.2 40.3C300 40.7 343 41.3 385.8 41.3C428.7 41.3 471.3 40.7 514.2 41C557 41.3 600 42.7 642.8 42.5C685.7 42.3 728.3 40.7 771.2 40C814 39.3 857 39.7 878.5 39.8L900 40L900 51L878.5 51C857 51 814 51 771.2 51C728.3 51 685.7 51 642.8 51C600 51 557 51 514.2 51C471.3 51 428.7 51 385.8 51C343 51 300 51 257.2 51C214.3 51 171.7 51 128.8 51C86 51 43 51 21.5 51L0 51Z" fill="#000000"></path></svg>